#tb 0: 1/25
#media_type 0: video
#codec_id 0: rawvideo
#dimensions 0: 352x256
#sar 0: 1/1
0,          0,          0,        1,   270336, 0x3af3cd54
0,          1,          1,        1,   270336, 0x892ccd54
0,          2,          2,        1,   270336, 0x2171cd54
0,          3,          3,        1,   270336, 0xcaedcd54
0,          4,          4,        1,   270336, 0xe973cd54
0,          5,          5,        1,   270336, 0x4ad3cd54
0,          6,          6,        1,   270336, 0xffe6cd54
0,          7,          7,        1,   270336, 0x93d6cd54
0,          8,          8,        1,   270336, 0xd75ecd54
0,          9,          9,        1,   270336, 0xd257cd54
0,         10,         10,        1,   270336, 0x2a55cd54
0,         11,         11,        1,   270336, 0x751fcd54
0,         12,         12,        1,   270336, 0x5041cd54
0,         13,         13,        1,   270336, 0xaaa8cd54
0,         14,         14,        1,   270336, 0xe1fccd54
0,         15,         15,        1,   270336, 0x2f22cd54
0,         16,         16,        1,   270336, 0xef8acd54
0,         17,         17,        1,   270336, 0xaab1cd54
0,         18,         18,        1,   270336, 0x7e77cd54
0,         19,         19,        1,   270336, 0xe3b9cd54
0,         20,         20,        1,   270336, 0x0208cd54
0,         21,         21,        1,   270336, 0xa8bdcd54
0,         22,         22,        1,   270336, 0x814acd54
0,         23,         23,        1,   270336, 0x39a2cd54
0,         24,         24,        1,   270336, 0xb115cd54
0,         25,         25,        1,   270336, 0xdd07cd54
0,         26,         26,        1,   270336, 0x08bbcd54
0,         27,         27,        1,   270336, 0x0e31cd54
0,         28,         28,        1,   270336, 0xb40bcd54
0,         29,         29,        1,   270336, 0xfc97cd54
0,         30,         30,        1,   270336, 0xce92cd54
0,         31,         31,        1,   270336, 0xcbefcd54
0,         32,         32,        1,   270336, 0x873dcd54
0,         33,         33,        1,   270336, 0x010ccd54
0,         34,         34,        1,   270336, 0x2b1bcd54
0,         35,         35,        1,   270336, 0xae13cd54
0,         36,         36,        1,   270336, 0x3473cd54
0,         37,         37,        1,   270336, 0xedb4cd54
0,         38,         38,        1,   270336, 0x27f3cd54
0,         39,         39,        1,   270336, 0xc0c1cd54
0,         40,         40,        1,   270336, 0xee19cd54
0,         41,         41,        1,   270336, 0xd2c7cd54
0,         42,         42,        1,   270336, 0xc976cd54
0,         43,         43,        1,   270336, 0xcb5bcd54
0,         44,         44,        1,   270336, 0x373fcd54
0,         45,         45,        1,   270336, 0xbe11cd54
0,         46,         46,        1,   270336, 0xa06acd54
0,         47,         47,        1,   270336, 0x6440cd54
0,         48,         48,        1,   270336, 0xf60bcd54
0,         49,         49,        1,   270336, 0xe569cd54
